<svg id="Calque_1" data-name="Calque 1" xmlns="http://www.w3.org/2000/svg" viewBox="0 0 256 240"><defs><style>.cls-2{fill:#189e57}</style></defs><path d="M216 240H40a40 40 0 01-40-40V88a40 40 0 0140-40h176a40 40 0 0140 40v112a40 40 0 01-40 40z" fill="#f7aa46"/><circle class="cls-2" cx="70" cy="16" r="16"/><circle class="cls-2" cx="186" cy="16" r="16"/><path class="cls-2" d="M86 160a12 12 0 01-12-12v-9a12 12 0 0112-12 12 12 0 0112 12v9a12 12 0 01-12 12zM170 160a12 12 0 01-12-12v-9a12 12 0 0112-12 12 12 0 0112 12v9a12 12 0 01-12 12zM128 200c-47.61 0-71.71-3.17-108-22.16V192c36.29 19 60.39 22.16 108 22.16S199.71 211 236 192v-14.16C199.71 196.83 175.61 200 128 200zM70 64a8 8 0 01-8-8V24a8 8 0 018-8 8 8 0 018 8v32a8 8 0 01-8 8zM186 64a8 8 0 01-8-8V24c0-4.42-6.42-8-2-8h10a8 8 0 018 8v32a8 8 0 01-8 8z"/></svg>